<?xml version="1.0" encoding="UTF-8" standalone="no"?>
<svg
   version="1.0"
   width="661.000000pt"
   height="661.000000pt"
   viewBox="0 0 661.000000 661.000000"
   preserveAspectRatio="xMidYMid meet"
   id="svg67"
   sodipodi:docname="blazon.svg"
   inkscape:version="1.2.2 (b0a8486541, 2022-12-01)"
   xmlns:inkscape="http://www.inkscape.org/namespaces/inkscape"
   xmlns:sodipodi="http://sodipodi.sourceforge.net/DTD/sodipodi-0.dtd"
   xmlns="http://www.w3.org/2000/svg"
   xmlns:svg="http://www.w3.org/2000/svg">
  <defs
     id="defs71" />
  <sodipodi:namedview
     id="namedview69"
     pagecolor="#ffffff"
     bordercolor="#000000"
     borderopacity="0.25"
     inkscape:showpageshadow="2"
     inkscape:pageopacity="0.0"
     inkscape:pagecheckerboard="0"
     inkscape:deskcolor="#202020"
     inkscape:document-units="pt"
     showgrid="false"
     inkscape:zoom="1.123298"
     inkscape:cx="171.81549"
     inkscape:cy="460.25187"
     inkscape:window-width="2560"
     inkscape:window-height="1371"
     inkscape:window-x="0"
     inkscape:window-y="32"
     inkscape:window-maximized="1"
     inkscape:current-layer="svg67" />
  <metadata
     id="metadata57">
Created by potrace 1.16, written by Peter Selinger 2001-2019
</metadata>
  <rect
     style="fill:#ff0000;fill-opacity:1;stroke-width:0.75"
     id="rect4715-3-6"
     width="661"
     height="661"
     x="0"
     y="2.4868996e-14"
     inkscape:label="rect4715-3" />
  <rect
     style="fill:#141414;fill-opacity:1;stroke-width:0.731847"
     id="rect4715-3-3"
     width="645"
     height="645"
     x="8"
     y="8"
     inkscape:label="rect4715-3" />
  <g
     id="g4633"
     transform="matrix(0.9874059,0,0,0.97840315,4.7078766,7.3712908)">
    <path
       id="path1643"
       style="fill:#bfbfbf;fill-opacity:1;stroke:none;stroke-width:0.1"
       d="m 344.62891,208.50195 c -1.90073,0.0424 -3.81631,0.16356 -5.62831,0.79055 -2.55119,0.8201 -4.98946,1.952 -7.5006,2.88523 0.0104,86.8862 -0.0236,173.77241 0.0229,260.65859 0.0629,46.49548 0.10998,92.9915 0.46526,139.48585 0.0907,6.94882 0.0794,13.90216 0.34871,20.84649 -0.0369,1.0676 0.7135,1.91472 1.10064,2.86064 1.00064,-0.89869 2.13234,-1.72772 2.65358,-3.01835 2.03803,-4.29666 3.45997,-8.85368 4.89084,-13.37952 1.83702,-5.93201 3.3851,-11.97855 4.05869,-18.16455 1.0858,-9.52616 1.28472,-19.12437 1.53065,-28.7012 0.43159,-21.12854 0.43633,-42.26289 0.47155,-63.39497 0.0252,-46.95926 -0.17476,-93.91826 -0.313,-140.87723 -0.17902,-53.35525 -0.3564,-106.7105 -0.53645,-160.06575 -0.52148,0.0247 -1.04297,0.0495 -1.56445,0.0742 z" />
    <path
       id="path1641"
       style="fill:#bfbfbf;fill-opacity:1;stroke:none;stroke-width:0.1"
       d="m 314.5,209.70117 c 0.10906,94.58452 0.009,189.1705 0.72892,283.75303 0.24691,28.63918 0.49801,57.28026 1.20804,85.91244 0.25779,8.38236 0.42651,16.77454 1.11891,25.1351 0.28972,3.42638 1.32078,6.72916 2.17851,10.04318 1.77554,6.16893 3.71406,12.32388 6.42578,18.1543 0.5337,1.00349 1.03569,2.47634 2.39547,2.48179 1.00786,0.0369 1.69467,-0.99942 1.8057,-1.92906 0.52438,-3.54401 0.4811,-7.14228 0.60985,-10.71567 0.34081,-18.07123 0.32673,-36.14685 0.39836,-54.22059 0.10225,-55.73836 0.12008,-111.47685 0.13046,-167.2153 0,-62.91953 0,-125.83906 0,-188.75859 -2.09645,-0.96768 -4.16471,-2.03839 -6.43393,-2.54814 -3.44848,-0.98838 -7.03039,-1.30327 -10.56802,-1.81319 6.5e-4,0.57357 0.001,1.14713 0.002,1.7207 z" />
    <path
       id="path1639"
       style="fill:#bfbfbf;fill-opacity:1;stroke:none;stroke-width:0.1"
       d="m 319.15039,169.97266 c -1.12342,-0.0434 -2.03936,0.96064 -1.97851,2.0664 -0.0606,2.30597 0.57531,4.65793 0.90516,6.81796 0.65137,4.47035 -0.84338,8.84761 -1.77936,13.1623 -0.75425,3.54085 -1.55218,7.11498 -1.6219,10.74826 0.0853,1.7057 0.38099,3.70737 1.97852,4.67187 2.22239,1.27775 4.85875,1.45192 7.26928,2.21785 1.66063,0.43942 3.25174,1.08492 4.79126,1.83684 2.54141,0.91388 5.18071,-0.23396 7.58383,-1.04417 2.20096,-0.80563 4.42745,-1.66429 6.76578,-1.95192 1.21772,0.0851 2.64023,-0.62924 3.01492,-1.91224 0.56419,-1.81145 0.41931,-3.75678 0.36224,-5.62905 -0.25308,-3.57034 -0.99234,-7.08789 -1.99105,-10.51913 -0.33407,-1.44948 -0.53499,-2.72445 -0.67451,-4.21228 -0.1488,-1.63254 -0.19899,-3.18082 -0.15734,-4.86077 0.0892,-3.16266 0.39152,-6.33716 0.12543,-9.49739 -0.0549,-0.6394 -0.58279,-1.01089 -0.98242,-1.45508 -2.12317,0.1062 -3.86889,1.47262 -5.59361,2.56881 -1.78239,1.19429 -3.35622,2.6545 -4.9142,4.12064 -2.11159,-1.85114 -4.33854,-3.59113 -6.84571,-4.8789 -1.92467,-0.96624 -3.89909,-2.05208 -6.07812,-2.25196 l -0.1,0.001 z" />
    <path
       id="path1637"
       style="fill:#ffe500;fill-opacity:1;stroke:none;stroke-width:0.1"
       d="m 314.53711,157.06445 c -6.55423,0.17435 -12.84503,2.26393 -19.04491,4.20596 -7.49679,2.38977 -14.7545,5.47271 -21.87117,8.81338 -1.88343,0.96655 -3.89216,1.78548 -5.539,3.13691 -0.77968,0.65398 -0.71626,1.80813 -0.12185,2.56242 2.23865,3.37806 4.98525,6.38001 7.51172,9.5404 0.74994,0.88534 1.47429,1.82502 2.21335,2.69755 0.65517,0.52565 1.5281,0.30439 2.15594,-0.16112 4.83647,-3.27435 9.07448,-7.3633 14.02925,-10.47585 6.09158,-3.91862 12.93716,-7.09662 20.25521,-7.58927 1.27808,-0.078 2.52412,-0.0609 3.72201,0.048 4.35687,0.34861 8.54578,2.16435 11.82958,5.04156 0.78975,0.6318 1.57938,1.26375 2.36964,1.89493 2.72476,-1.86383 5.30158,-3.9612 8.1756,-5.59595 2.69338,-1.43554 5.84773,-1.0943 8.79001,-1.18115 5.05163,-0.0337 10.17809,1.00143 14.58433,3.54334 6.25325,3.51526 11.06827,8.94348 16.22345,13.81808 0.60119,0.58363 1.20298,1.16663 1.80473,1.74966 3.45358,-3.53251 6.92468,-6.99682 10.35062,-10.53218 1.1072,-1.16121 2.27787,-2.77976 1.62985,-4.45805 -0.86901,-1.89999 -2.95914,-2.72706 -4.66515,-3.7058 -5.82507,-2.96545 -11.64368,-5.98168 -17.80874,-8.21176 -8.70776,-3.19178 -17.9911,-5.34331 -27.31591,-4.74876 -3.09489,0.15885 -6.12419,0.84173 -9.11456,1.61353 -2.8136,0.71254 -5.71541,0.15712 -8.47831,-0.50265 -3.83246,-0.88046 -7.73643,-1.60294 -11.68569,-1.50316 z" />
    <path
       id="path1635"
       style="fill:#806600;fill-opacity:1;stroke:none;stroke-width:0.1"
       d="m 339.60547,144.75977 c -3.26417,0.3353 -6.38702,1.4352 -9.54315,2.27819 -3.4742,1.03081 -7.04656,1.93783 -10.23029,3.7179 -1.26675,0.71 -2.54048,2.09573 -2.05078,3.65625 0.55866,1.66893 2.34494,2.45814 3.8648,3.05528 3.30894,1.03414 6.83912,1.07381 10.27422,0.93355 3.34935,-0.2306 6.95567,-0.59394 9.68754,-2.74652 1.69271,-1.25935 1.92464,-3.51646 1.88922,-5.46675 -0.0134,-1.65651 0.15973,-3.71141 -1.32125,-4.83806 -0.74547,-0.5264 -1.67965,-0.64234 -2.57031,-0.58984 z" />
    <path
       id="path1633"
       style="fill:#806600;fill-opacity:1;stroke:none;stroke-width:0.1"
       d="m 340.13281,135.67578 c -3.17562,0.28763 -6.22358,1.31847 -9.29108,2.13308 -3.28204,0.99183 -6.6833,1.67107 -9.82152,3.0829 -1.39952,0.58504 -2.54146,1.91308 -2.51161,3.48553 -0.16893,1.56077 0.63156,3.29287 2.21015,3.77115 2.23523,0.68076 4.58025,-0.0376 6.77808,-0.53622 3.94541,-1.10481 7.86487,-2.34723 11.65235,-3.91563 1.77896,-0.7524 3.78187,-1.92779 4.09496,-4.01606 0.28005,-1.29212 0.17842,-2.98382 -1.16016,-3.64733 -0.59152,-0.3208 -1.28879,-0.38248 -1.95117,-0.35742 z" />
    <path
       id="path1631"
       style="fill:#806600;fill-opacity:1;stroke:none;stroke-width:0.1"
       d="m 339.69336,126.73047 c -2.17778,0.34659 -4.13192,1.47864 -6.2687,1.99643 -3.22114,0.97398 -6.68196,1.74368 -9.96763,2.75943 -1.82876,0.59269 -3.99414,1.44644 -4.57617,3.47851 -0.28578,1.28325 -0.68318,2.90652 0.4375,3.91407 1.40168,1.00248 3.21296,0.42696 4.7832,0.28906 4.71109,-1.02271 9.40129,-2.20581 13.95353,-3.80216 1.74483,-0.63386 3.83356,-1.51885 4.30233,-3.51815 0.21299,-1.27051 0.26386,-2.6617 -0.22461,-3.87305 -0.41121,-0.92912 -1.46322,-1.38334 -2.43945,-1.24414 z" />
    <path
       id="path1629"
       style="fill:#806600;fill-opacity:1;stroke:none;stroke-width:0.1"
       d="m 340.65234,117.60742 c -2.225,0.59553 -4.38993,1.48227 -6.56533,2.19115 -3.83112,1.30828 -7.53196,2.63493 -11.47429,3.55629 -1.04909,0.22307 -2.28201,0.10748 -3.06924,0.98627 -1.25529,1.29213 -1.09969,3.26738 -0.94778,4.92254 0.12226,1.33254 1.41999,2.29592 2.72882,2.13631 3.41373,-0.34176 6.69507,-1.44148 9.99835,-2.31531 2.93137,-0.91543 5.96536,-1.57586 8.76623,-2.85948 1.40246,-0.60896 2.40998,-2.007 2.38994,-3.55763 0.0164,-1.3834 0.0767,-2.79949 -0.24662,-4.15389 -0.35897,-0.38475 -0.49131,-1.25252 -1.16878,-0.95224 -0.1371,0.0153 -0.2742,0.0307 -0.4113,0.046 z" />
    <path
       id="path1627"
       style="fill:#806600;fill-opacity:1;stroke:none;stroke-width:0.1"
       d="m 339.07812,109.73828 c -2.90149,0.23981 -5.65333,1.30282 -8.41848,2.14581 -3.06077,1.03666 -6.1977,1.92867 -9.09606,3.37734 -1.46244,0.68747 -2.63935,2.12648 -2.55883,3.80595 -0.11837,1.38184 0.48664,2.99543 1.93275,3.40723 1.99535,0.54297 4.04613,-0.19775 5.99219,-0.63281 4.00537,-1.13662 8.02727,-2.26717 11.90416,-3.79584 1.60406,-0.62913 3.35454,-1.7146 3.6017,-3.57721 0.17406,-1.51833 0.11687,-3.48838 -1.39649,-4.32617 -0.58875,-0.34026 -1.29125,-0.42263 -1.96094,-0.4043 z" />
    <path
       id="path1625"
       style="fill:#806600;fill-opacity:1;stroke:none;stroke-width:0.1"
       d="m 339.76562,100.70117 c -2.18542,0.32424 -4.20653,1.30243 -6.32731,1.88779 -3.85589,1.29247 -7.85688,2.15477 -11.62581,3.69815 -1.54553,0.63662 -3.2702,1.79029 -3.30385,3.64295 -0.1668,1.55519 0.9371,3.10135 2.495,3.36603 2.34673,0.44181 4.71597,-0.26481 6.98934,-0.79852 3.65646,-0.99745 7.29567,-2.09614 10.83064,-3.46688 1.59853,-0.61034 3.3433,-1.67321 3.6041,-3.52092 0.086,-1.37368 0.282,-2.98268 -0.65429,-4.12305 -0.51556,-0.54537 -1.27476,-0.7589 -2.00782,-0.68555 z" />
    <path
       id="path1623"
       style="fill:#806600;fill-opacity:1;stroke:none;stroke-width:0.1"
       d="m 339.11523,91.712891 c -2.81158,0.230462 -5.47982,1.256709 -8.15926,2.074066 -3.02283,1.057987 -6.18654,1.772619 -9.06412,3.206291 -1.41433,0.663258 -2.4099,2.10289 -2.38208,3.684482 0.0105,1.438 -0.22187,3.26387 1.10546,4.22461 1.46956,0.91738 3.25521,0.19603 4.79023,-0.16142 4.39738,-1.30292 8.86936,-2.45831 13.06475,-4.34051 1.82877,-0.829519 3.78396,-2.219702 3.99463,-4.388691 0.15987,-1.466123 -0.0843,-3.344071 -1.61132,-4.003907 -0.53943,-0.251906 -1.14927,-0.312505 -1.73829,-0.294921 z" />
    <path
       id="path1621"
       style="fill:#806600;fill-opacity:1;stroke:none;stroke-width:0.1"
       d="m 339.17969,82.722656 c -3.00022,0.279875 -5.8471,1.369618 -8.71438,2.231874 -2.92577,1.006474 -5.99349,1.693042 -8.7468,3.138494 -1.43218,0.702951 -2.29629,2.252781 -2.21421,3.835461 0.0412,1.312285 -0.0657,2.757255 0.62156,3.924806 0.58866,0.909897 1.75919,0.65808 2.63781,0.404521 5.01377,-1.41284 9.95928,-3.074166 14.82892,-4.922531 2.03818,-0.712073 3.93787,-2.196596 4.72186,-4.255203 0.50111,-1.51998 0.051,-3.640604 -1.64453,-4.175781 -0.48036,-0.15831 -0.98704,-0.199364 -1.49023,-0.181641 z" />
    <path
       id="path1619"
       style="fill:#806600;fill-opacity:1;stroke:none;stroke-width:0.1"
       d="m 339.73242,73.798828 c -2.63536,0.285076 -5.11194,1.330911 -7.62285,2.123877 -3.43585,1.24654 -7.01288,2.198366 -10.23978,3.949812 -1.39011,0.726139 -2.57071,2.149804 -2.36198,3.803264 -0.052,1.344143 0.94663,2.638221 2.32216,2.740622 3.16987,0.260279 6.24755,-0.82185 9.2435,-1.713406 3.00035,-1.022743 6.06369,-2.020525 8.7705,-3.703235 1.42301,-0.871343 2.45226,-2.380827 2.50564,-4.075934 0.23683,-1.181985 -0.22366,-2.615069 -1.47461,-2.992187 -0.3717,-0.108087 -0.75598,-0.150402 -1.14258,-0.132813 z" />
    <path
       id="path1617"
       style="fill:#806600;fill-opacity:1;stroke:none;stroke-width:0.1"
       d="m 338.73242,65.716797 c -2.50143,0.207567 -4.85549,1.188522 -7.23382,1.92778 -3.15862,1.113857 -6.43168,2.023778 -9.36231,3.680521 -1.40148,0.765641 -2.50184,2.188687 -2.47809,3.838964 -0.19336,1.389102 0.67122,2.913919 2.12891,3.123047 2.09546,0.305558 4.13963,-0.537617 6.12305,-1.097656 3.52019,-1.198743 7.09249,-2.325557 10.41796,-4.009765 1.5384,-0.77914 2.91973,-2.189392 2.98663,-4.001321 0.24542,-1.211333 -0.0502,-2.763684 -1.33819,-3.246726 -0.38866,-0.171785 -0.8226,-0.219164 -1.24414,-0.214844 z" />
    <path
       id="path1615"
       style="fill:#806600;fill-opacity:1;stroke:none;stroke-width:0.1"
       d="m 338.4375,56.779297 c -2.69202,0.285443 -5.22322,1.346902 -7.78821,2.153248 -2.73063,0.986785 -5.60375,1.687043 -8.13701,3.141393 -1.36988,0.759982 -2.09692,2.318475 -2.00973,3.854922 -0.006,1.663641 -7.1e-4,3.327383 -0.003,4.991062 4.85502,-1.523459 9.78426,-2.818418 14.57896,-4.52787 2.12853,-0.84973 4.54961,-1.678331 5.8312,-3.716271 0.75395,-1.319115 0.75048,-2.99554 0.28125,-4.40625 -0.43892,-1.088661 -1.6362,-1.589713 -2.75391,-1.490234 z" />
    <path
       id="path1613"
       style="fill:#806600;fill-opacity:1;stroke:none;stroke-width:0.1"
       d="m 330.62891,52.675781 c -2.4553,0.100179 -4.98386,0.137503 -7.32618,0.957031 -1.88428,0.821372 -3.37739,3.140072 -2.48046,5.167969 0.65491,1.541233 2.55368,1.945153 4.04782,1.584544 3.50077,-0.65364 6.9046,-1.791002 10.19241,-3.147044 1.01861,-0.467496 2.29775,-0.991241 2.48732,-2.24292 -0.005,-1.001391 -0.8545,-1.776226 -1.81154,-1.958252 -1.66933,-0.382574 -3.40605,-0.367311 -5.10937,-0.361328 z" />
    <path
       id="path1611"
       style="fill:#ffe500;fill-opacity:1;stroke:none;stroke-width:0.1"
       d="m 334.75586,19.570312 c -1.32441,0.06893 -3.01163,0.394137 -3.55274,1.775391 -0.52241,2.35193 -0.45379,4.790547 -0.59041,7.185906 -0.20363,7.791699 -0.0774,15.58712 -0.11271,23.3805 2.87844,0.648907 5.81608,1.110634 8.58984,2.142579 1.4077,0.2989 2.62325,-0.825555 3.0918,-2.064454 1.20674,-2.985188 1.75105,-6.183997 2.53587,-9.295026 0.97835,-4.414815 2.1,-8.839589 2.33878,-13.371695 0.13132,-2.474494 -0.32458,-5.279625 -2.3782,-6.912131 -2.12182,-1.672694 -4.858,-2.287491 -7.47106,-2.714116 -0.81282,-0.102805 -1.63157,-0.160105 -2.45117,-0.126954 z" />
    <path
       id="path1609"
       style="fill:#ffe500;fill-opacity:1;stroke:none;stroke-width:0.1"
       d="m 330.04688,17.5 c -2.40512,0.04891 -4.82197,0.141578 -7.16717,0.729348 -2.93055,0.699083 -6.00718,1.390796 -8.46369,3.229636 -1.94046,1.438475 -2.72873,3.939442 -2.59347,6.278453 0.20786,4.674126 1.92895,9.089588 3.3354,13.499434 1.41414,4.043992 2.73011,8.137674 4.51197,12.03852 0.33784,0.822241 1.28662,1.567529 2.17165,1.126504 3.0567,-1.012803 6.10429,-2.0535 9.1389,-3.132364 0.21587,-11.274744 0.4356,-22.549416 0.64844,-33.824219 -0.52735,0.01823 -1.05469,0.03646 -1.58203,0.05469 z" />
    <path
       d="m 321.7,17.1 c -5.8,1.4 -9.7,3.7 -10.8,6.6 -1.3,3.5 0.3,11.4 4.8,22.7 l 3.5,8.8 -1.1,40.2 c -0.6,22 -1.1,43.8 -1.1,48.3 v 8.3 h -3.3 c -5.6,0 -18.2,3.7 -25.9,7.6 -7.7,3.8 -19.8,11.5 -21.6,13.7 -0.9,1 0.4,3.2 5.3,9.3 3.6,4.3 6.8,8 7.2,8.1 0.5,0.2 3.4,-2.1 6.5,-5 9.6,-8.9 24.4,-16.2 29.2,-14.4 2.8,1.1 3.1,11 0.6,20.5 l -2.2,8.7 1,199 c 0.9,195.4 1,199.2 3,208.3 1.1,5.1 3,12.1 4.1,15.5 2.8,8.1 9.3,21.2 10.6,21.1 1.5,-0.2 10.1,-20.9 12.4,-29.9 1.1,-4.4 2.5,-11.8 3.1,-16.5 0.6,-5.5 1,-75.9 1,-204.5 0,-175.2 -0.2,-196.5 -1.6,-201 -1.6,-5.2 -2.1,-15.6 -1,-19.3 1,-2.9 6.5,-2.9 14.3,0 4.5,1.6 7.5,3.8 13.7,10 l 7.9,7.9 7.4,-7.3 c 4,-4 7.3,-8 7.3,-9 0,-2.2 -14.1,-11.6 -25.1,-16.7 -7.7,-3.6 -12.9,-5 -23.1,-6.6 l -3.7,-0.6 v -19.2 c 0,-10.6 -0.3,-31.8 -0.7,-47.2 l -0.7,-28 4.2,-12.1 c 4.8,-14.1 5.3,-20 1.9,-23.1 -5,-4.6 -17.4,-6.5 -27.1,-4.2 z m 8.1,17.5 -0.3,15.6 -4,1.4 c -2.2,0.7 -4.1,1.4 -4.2,1.4 -0.6,0 -6.5,-16.8 -7.4,-21.1 -1.5,-7.1 -0.3,-9.4 5.8,-11.3 2.6,-0.8 6,-1.5 7.6,-1.5 l 2.8,-0.1 z m 11.1,-12.5 c 5.7,2 6,5 1.9,22.2 -1.7,7.3 -2.3,8.7 -3.7,8.2 -0.9,-0.4 -2.8,-0.9 -4.3,-1.2 L 332,50.7 V 36.5 c 0,-7.8 0.3,-14.5 0.7,-14.8 1,-1 4.6,-0.8 8.2,0.4 z M 336,54.9 c 0,0.8 -9.8,4.1 -12.3,4.1 -2.2,0 -2.2,-2.6 0,-3.9 2.1,-1.1 12.3,-1.3 12.3,-0.2 z m 4,5.5 c 0,2.6 -2.4,3.9 -12.7,6.9 l -5.3,1.6 v -2.8 c 0,-2.5 0.6,-2.9 7.8,-5.3 9.7,-3.3 10.2,-3.3 10.2,-0.4 z m -0.2,8.8 c -0.2,1.9 -1.8,2.8 -7.8,5 -9.5,3.4 -11.2,3.5 -10.8,0.6 0.2,-1.7 1.9,-2.7 8.3,-4.9 10,-3.4 10.7,-3.5 10.3,-0.7 z m 1,8 c -0.2,1.8 -1.7,2.9 -6.3,4.7 -3.3,1.3 -7.7,2.6 -9.7,2.9 -3.3,0.4 -3.8,0.2 -3.8,-1.5 0,-1.6 1.7,-2.6 8.8,-5 11,-3.8 11.4,-3.8 11,-1.1 z M 341,86 c 0,1.1 -1.2,2.5 -2.7,3.4 -2.4,1.2 -15.7,5.6 -16.9,5.6 -0.2,0 -0.4,-1.2 -0.4,-2.8 0,-2.5 0.6,-2.9 8.3,-5.3 C 339.5,83.6 341,83.4 341,86 Z m 0,9.4 c 0,2.6 -2.4,3.9 -12.9,7 -7.1,2.1 -7.1,2.1 -7.1,-1.2 0,-2.5 0.6,-2.9 8.3,-5.3 10.6,-3.5 11.7,-3.5 11.7,-0.5 z m 0,9.1 c 0,2.2 -0.9,2.7 -8.1,5 -9.8,3.1 -12.9,3.2 -12.9,0.6 0,-1.5 1.5,-2.4 7.3,-4.1 3.9,-1.1 8.3,-2.5 9.7,-3 3.8,-1.3 4,-1.2 4,1.5 z m 0,9 c 0,2.1 -0.8,2.7 -7.7,4.9 -11.3,3.5 -12.8,3.6 -12.8,0.8 0,-2.1 1.1,-2.7 8.5,-5.2 10.9,-3.6 12,-3.6 12,-0.5 z m 0,8.4 c 0,2.6 -0.4,2.9 -7.2,4.9 -4,1.2 -8.8,2.5 -10.5,2.8 -3.1,0.6 -3.3,0.5 -3.3,-2 0,-1.8 0.5,-2.6 1.8,-2.6 1,0 5.6,-1.3 10.2,-2.9 4.7,-1.6 8.6,-3 8.8,-3 0.1,-0.1 0.2,1.2 0.2,2.8 z m 0,8.6 c 0,2.1 -0.8,2.7 -6.6,4.5 -3.7,1.1 -8.5,2.3 -10.6,2.7 -3.7,0.5 -4,0.4 -3.6,-1.7 0.2,-1.9 1.5,-2.6 7.3,-4.1 3.9,-1 8.2,-2.2 9.5,-2.8 3.7,-1.4 4,-1.3 4,1.4 z m 0.8,8.7 c -0.2,1.9 -1.8,2.8 -8.3,5 -10.4,3.5 -13.5,3.6 -13.5,0.5 0,-2.1 0.9,-2.6 9.3,-4.9 11.9,-3.4 12.9,-3.4 12.5,-0.6 z M 342,150 c 0,3.4 -0.4,4.2 -3,5.5 -3.5,1.8 -13.8,2 -17.5,0.3 -4.6,-2.1 -2.5,-4 7.5,-6.9 12.9,-3.7 13,-3.7 13,1.1 z m -15.8,10.1 c 4.8,1.1 6.6,1.1 11,-0.1 12.1,-3.1 28.3,0.1 45.8,9.1 11.7,5.9 11.3,5 4.6,11.8 l -6,6.1 -6.7,-6.5 c -9.2,-8.9 -15.9,-12 -26.1,-12 -7,0 -8,0.3 -12.2,3.2 l -4.5,3.2 -2.5,-2 c -10.6,-8.3 -26.4,-5.4 -43,7.9 -4.3,3.5 -7.9,6.2 -8,6 -0.1,-0.2 -2.3,-2.8 -4.9,-6 -2.6,-3.1 -4.7,-5.9 -4.7,-6.3 0,-1 15.8,-8.1 24.5,-11 16.9,-5.6 21.5,-6 32.7,-3.4 z m 3,16.4 3.1,2.6 2.6,-2.4 c 2.2,-2.1 6.3,-4.7 7.3,-4.7 0.2,0 0.2,3.3 0,7.4 -0.3,4.8 0.1,9.3 1.2,12.9 0.9,3 1.6,7.6 1.6,10.1 0,3.9 -0.3,4.6 -2,4.6 -1.1,0 -4.3,0.9 -7.1,2 -4.1,1.5 -5.6,1.7 -7.3,0.8 -1.2,-0.7 -4.3,-1.7 -7.1,-2.3 -4.6,-1.1 -5,-1.4 -5.3,-4.4 -0.2,-1.8 0.7,-7.3 1.9,-12.2 1.8,-7.3 2,-9.7 1.2,-13.8 -0.6,-2.8 -0.8,-5.3 -0.5,-5.5 0.8,-0.8 7.2,2.2 10.4,4.9 z m -1.8,35.6 2.6,1.2 v 211.6 c -0.1,209 -0.1,211.6 -2,208.1 -2.6,-4.8 -6.7,-17.1 -8.6,-26 -2,-9.4 -3.1,-104.2 -3.3,-278.9 l -0.1,-118.4 4.4,0.6 c 2.4,0.4 5.5,1.2 7,1.8 z m 17.9,177.6 c 0.6,181 0.3,203 -2.9,218.8 -1.8,8.6 -7,24.1 -8.5,25.1 -0.5,0.3 -0.9,-84.5 -0.9,-209.9 V 213.2 l 3.8,-1.5 c 2,-0.9 4.6,-1.6 5.8,-1.6 l 2.1,-0.1 z"
       id="path59-7"
       style="fill:#000000;stroke:none;stroke-width:0.1"
       inkscape:label="sword" />
    <path
       id="path61"
       style="fill:#ffffff;stroke:none;stroke-width:0.1"
       d="m 91.001953,117.66211 c -0.545208,0.53055 -1.503251,1.11584 -1.308594,1.99219 0.278625,0.60804 1.094698,0.72333 1.618214,1.07104 5.656676,2.53873 11.555687,4.48119 17.402037,6.52829 20.15761,6.83603 40.51104,13.07701 60.87718,19.25687 15.63249,4.74459 31.31769,9.32724 46.79347,14.56809 5.32251,1.88532 10.72979,3.68104 15.66647,6.46473 2.64121,1.43884 4.65045,3.71645 6.87115,5.69301 -1.62504,2.55092 -2.98764,5.32186 -5.19574,7.44236 -4.04019,4.03799 -8.69582,7.38696 -13.27296,10.77948 -15.23253,11.01696 -30.96584,21.31114 -46.46203,31.94866 -19.10698,13.02561 -37.98381,26.30148 -56.64718,39.95478 -1.27,1.03898 -2.75912,1.97406 -3.53943,3.46242 -0.24733,0.8078 -0.18023,2.0971 0.74234,2.43378 0.77254,-0.0289 1.49903,-0.5229 2.22999,-0.78191 6.41493,-2.95255 12.58768,-6.39897 18.78293,-9.78044 12.80638,-7.11323 25.53463,-14.36592 38.32755,-21.50327 16.09048,-8.96527 32.16052,-17.97748 48.49351,-26.49492 6.62438,-3.37618 13.24586,-6.82533 20.23354,-9.40116 3.28648,-1.14977 6.81,-2.19738 10.31973,-1.63254 1.47425,0.22654 2.51835,1.64532 2.42915,3.10987 -0.12072,2.61222 -1.13783,5.07442 -1.89061,7.55077 -2.33508,6.95906 -5.73701,13.4956 -9.12944,19.98462 -7.80186,14.6204 -16.31988,28.84091 -24.85624,43.04033 -11.94902,19.84389 -24.21666,39.49336 -36.39379,59.1976 -4.61484,7.56794 -9.27734,15.11445 -13.51898,22.90051 -0.61811,1.19282 -1.37455,2.54901 -1.85547,3.89062 0.27319,1.21057 1.89125,1.22703 2.70313,0.55469 1.50408,-1.29617 2.59745,-2.9976 3.8789,-4.50391 9.64378,-12.41298 18.9197,-25.10565 28.21509,-37.77996 11.04681,-15.07773 21.89474,-30.29915 32.81034,-45.47067 6.52075,-8.99617 12.99092,-18.02983 19.65162,-26.92315 4.01986,-5.18851 8.2318,-10.28135 13.1312,-14.67044 1.49733,-1.22628 3.02591,-2.69272 5.00417,-3.02291 1.73801,-0.21044 2.98417,1.35745 3.62508,2.78119 1.64352,3.75892 2.24864,7.8609 2.9399,11.87579 1.80268,11.8432 2.72354,23.79784 3.64908,35.73552 1.3022,17.4965 2.21402,34.99177 3.4519,52.48398 2.03218,29.39558 4.24746,58.77315 6.81289,88.11762 0.74484,8.32102 1.47306,16.5679 2.44363,24.83837 0.24555,1.70377 0.33126,3.69088 1.33151,5.22411 0.41349,0.53817 1.37338,0.59579 1.62625,-0.13812 1.13013,-2.07355 0.76507,-4.53081 0.87363,-6.79928 0.10025,-33.63995 -0.29423,-67.27921 -0.23038,-100.91923 0.039,-26.45873 0.36144,-52.92346 1.56418,-79.35715 0.76403,-18.12973 2.00641,-36.23435 2.94042,-54.35517 0.12365,-3.21852 0.34874,-6.34114 0.15544,-9.57269 -0.0954,-0.56554 0.0124,-1.41124 -0.68209,-1.62069 -3.90404,-2.44211 -7.59866,-5.25063 -11.77675,-7.2279 -3.5455,2.15895 -6.06121,5.77871 -9.94918,7.406 -2.22802,0.97682 -4.84546,0.43698 -6.7596,-0.97542 -3.19721,-2.28794 -5.58132,-5.48041 -8.06266,-8.48278 -2.42343,-3.10644 -5.052,-6.15195 -6.65629,-9.78764 -0.91055,-2.04262 -0.9518,-4.55575 0.38086,-6.42969 2.20448,-3.17754 5.91307,-4.72695 8.7212,-7.26336 0.70084,-0.62077 1.42611,-1.23839 1.9663,-2.01008 -1.01621,-4.42249 -2.66063,-8.66926 -4.04077,-12.98557 -0.69751,-2.33024 -1.587,-4.63194 -1.93384,-7.04763 -0.14553,-1.05775 -0.66828,-2.80345 -1.40791,-3.57387 -1.60239,-0.53784 -3.26019,0.0426 -4.96801,0.34397 -8.4696,0.28918 -17.03773,1.07171 -25.56204,1.27786 -23.93873,0.69515 -47.89059,-1.50316 -71.4781,-5.51267 -19.84284,-3.36574 -39.46176,-7.92931 -58.91793,-13.05678 -3.99927,-1.00024 -7.991453,-2.03303 -12.01367,-2.9375 l -0.08158,0.0578 z"
       sodipodi:nodetypes="cccccccccccccccccccccccccccccccccccccccccccccccccccccccccccccccccc"
       inkscape:label="left bk" />
    <path
       d="m 88.9,117.6 c -0.9,1.1 -1,2.1 -0.3,3.2 1.399998,2.2 33.5,13 85.7,28.7 44,13.2 55.2,17.2 59.9,21.4 l 2.8,2.6 -1.9,3.1 c -3,4.9 -12.9,12.4 -46.7,35.2 -27.2,18.4 -45.2,30.9 -69.7,48.7 -5.7,4.1 -6.7,5.3 -6.5,7.5 0.2,1.7 1,2.6 2.4,2.8 1.4,0.2 14.1,-6.4 33.5,-17.4 C 226.9,209 242.6,201 251,201 c 3.6,0 3.7,0.9 0.9,9.3 -4.6,13.9 -21.9,43.9 -64.3,112.1 -14,22.5 -21.6,35.6 -21.4,37 0.4,2.5 3.3,3.3 5.5,1.4 2.4,-1.9 29.4,-38.3 54.8,-73.8 12,-16.8 25.1,-34.8 29,-40 7.7,-10.2 15.5,-18 17.9,-18 4,0 6.9,21.1 10.1,74 2.9,48.2 9.1,126.7 11.3,142.5 0.68425,4.09396 1.8458,5 3.7,5 0.96988,0 2.62548,-1.28512 2.80832,-5.37776 C 301.54858,440.99018 301.2,377.5 301.2,377.5 c -0.3,-73.3 0.3,-100.8 3.5,-153.4 1.6,-27.6 1.6,-28.5 -0.2,-29.5 -1,-0.6 -4,-2.6 -6.7,-4.4 -2.8,-1.7 -5.5,-3.2 -6,-3.2 -0.6,0 -3,1.8 -5.4,4 -6.8,6.2 -9.3,5.6 -17.6,-4.7 -9.8,-12.1 -9.9,-14.1 -1.3,-19.8 3,-2.1 5.5,-4.4 5.5,-5.3 0,-1 -1.4,-5.5 -3,-10.2 -1.6,-4.7 -3,-9.2 -3,-10.1 0,-0.8 -0.6,-2.3 -1.3,-3.3 -1.2,-1.7 -2.4,-1.7 -21.8,-0.5 -39.3,2.4 -79.5,-2.5 -132.8,-16.1 -10.6,-2.8 -19.700002,-5 -20.100002,-5 -0.4,0 -1.3,0.7 -2.099998,1.6 z m 22.6,5.7 c 56.9,14.5 99.3,18.9 144.7,15.1 l 7.6,-0.7 1.2,4.4 c 0.6,2.4 2.2,7.7 3.7,11.7 l 2.6,7.3 -2.4,1.7 c -1.3,0.9 -3.7,2.6 -5.4,3.7 -3.4,2.4 -5.1,6.1 -4.2,9.7 0.8,3 12.9,18.3 15.7,19.8 3.9,2.1 7.9,1.2 12.4,-3 l 4.4,-4 5,3.4 c 2.8,1.9 5.6,3.6 6.3,3.8 0.9,0.3 0.8,6.5 -0.5,27.4 -3,49.5 -3.8,84.8 -3.5,155.6 0.3,51.1 0.0959,68.81713 -0.69357,69.17121 C 297.22026,448.9032 296.9,447.5 293.5,411 c -2.2,-24.8 -5.3,-66.8 -9,-123.5 -2.6,-40.8 -4.8,-55.8 -8.6,-59.6 -1.8,-1.8 -2.2,-1.8 -4.7,-0.5 -6.7,3.6 -13.7,12.4 -50.2,63.5 -27.1,37.8 -50,68.4 -51.7,68.9 -0.7,0.2 -1.3,-0.1 -1.3,-0.7 0,-0.6 9.7,-16.7 21.7,-35.8 42.3,-68.1 59.6,-98.2 64.2,-112 4,-11.8 2.3,-14.3 -7.5,-11.7 -11.1,2.8 -28.3,11.8 -99.2,51.8 -17.2,9.7 -31.7,17.6 -32.2,17.6 -2.6,0 -0.4,-2.9 5.3,-7 31.7,-22.7 42.3,-30.1 70,-48.8 34.7,-23.5 44.2,-30.8 47.2,-36.5 l 2,-3.8 -3.5,-3.3 c -5.4,-4.9 -15.1,-8.5 -60.7,-22.2 -40.6,-12.2 -80.000002,-24.7 -83.600002,-26.6 -1.9,-1 -1.3,-3.2 0.7,-2.5 0.7,0.3 9.300002,2.5 19.100002,5 z"
       id="path61-6"
       style="fill:#000000;stroke:none;stroke-width:0.1"
       sodipodi:nodetypes="cscccccccscsccccccsccscccccscccssscccscccccccccccccccccsccscccsccccsccscccccc"
       inkscape:label="left" />
    <path
       id="path63"
       style="fill:#ffffff;stroke:none;stroke-width:0.1"
       d="m 568.29688,117.81445 c -4.90509,0.88873 -9.73049,2.16678 -14.56641,3.36719 -9.82764,2.59288 -19.76634,5.12531 -29.7315,7.3022 -33.49957,7.38637 -67.85548,11.83807 -102.2092,10.40216 -7.4251,-0.28863 -14.77644,-1.37578 -22.16005,-1.53108 -1.24652,0.0569 -2.57795,-0.42978 -3.73734,0.10201 -0.85962,0.98619 -1.40438,2.98678 -1.49199,4.27745 -1.30978,5.37297 -3.34176,10.53251 -4.98913,15.80526 -0.29792,0.94204 -0.60134,1.88336 -0.84485,2.84122 2.81408,2.85198 6.54709,4.53299 9.55908,7.14909 2.13327,1.76888 4.24133,4.13387 4.23779,7.07005 -0.028,3.10057 -1.99466,5.7317 -3.8663,8.03657 -3.00144,3.53273 -6.32109,6.78815 -9.74503,9.90835 -2.06578,1.7547 -4.32043,3.71148 -7.14487,3.92293 -2.76078,0.15542 -4.98692,-1.81816 -6.79972,-3.65649 -1.66073,-1.64409 -3.09521,-3.52433 -4.96752,-4.95784 -0.5667,-0.38361 -1.13305,0.3346 -1.64344,0.53962 -3.5554,2.20884 -7.18527,4.29547 -10.77843,6.43694 -1.63648,0.98597 -1.71431,3.07659 -1.8177,4.77685 -0.13516,4.90044 0.30596,9.79394 0.58196,14.66241 1.36553,19.99004 2.53296,39.99729 3.19519,60.02469 1.1876,35.29109 1.0709,70.60816 0.92718,105.91378 0.0701,20.97851 0.0654,41.95811 0.3379,62.93524 0.0853,1.93898 -0.28606,4.39294 0.75753,6.11922 0.39738,-0.0554 0.80341,-1.13247 1.00054,-1.52604 0.99895,-2.72159 1.3153,-5.6335 1.81818,-8.47451 1.76829,-11.52913 2.76138,-23.15893 3.76528,-34.77427 2.08316,-25.27364 3.60904,-50.6504 5.31036,-75.97746 1.532,-22.93706 3.00395,-45.88069 4.88418,-68.79192 0.63,-7.33692 1.23518,-14.70887 2.91497,-21.89702 0.728,-2.97721 1.41621,-6.04817 2.9963,-8.70972 0.63796,-1.12151 1.97056,-1.963 3.26954,-1.48047 2.20181,0.78992 3.93815,2.46045 5.66956,3.97363 4.70083,4.35074 8.87902,9.24689 12.62721,14.4351 17.47295,23.64508 34.40499,47.70264 51.72412,71.44658 8.60768,11.78065 17.18882,23.62514 26.11919,35.1724 0.9742,1.24141 1.95442,2.47798 2.96148,3.69299 0.37348,0.43179 0.9662,1.1242 1.46034,1.61933 1.08061,1.00185 2.22792,2.21922 3.75841,2.41778 0.53546,-0.16773 0.72239,-1.01428 0.45117,-1.47461 -1.89068,-4.19958 -4.31261,-8.13301 -6.6059,-12.11972 -8.85025,-14.96066 -18.21554,-29.60747 -27.3124,-44.4173 -12.28861,-19.94571 -24.55209,-39.91652 -36.12488,-60.28974 -4.99435,-8.93987 -9.98274,-17.9153 -13.98668,-27.35278 -1.32108,-3.29999 -2.65971,-6.62662 -3.40764,-10.11147 -0.32896,-1.55794 -0.21111,-3.54566 1.29102,-4.46289 1.69341,-0.97016 3.7615,-0.66737 5.61037,-0.43817 4.85906,0.8589 9.3818,2.95221 13.85394,4.95661 10.71114,5.01723 21.09489,10.6976 31.48603,16.33722 21.7247,11.86857 43.24519,24.10072 64.84011,36.20331 6.96966,3.83808 13.91894,7.73551 21.12556,11.11681 0.83124,0.30794 1.64937,0.83312 2.52475,0.92887 0.92191,-0.28649 0.98777,-1.53345 0.81314,-2.32731 -0.68075,-1.48962 -2.15545,-2.40003 -3.37532,-3.41818 -7.778,-5.70863 -15.64179,-11.3007 -23.48977,-16.91268 -15.424,-11.00802 -31.05338,-21.70446 -46.7825,-32.29841 -11.66479,-7.93434 -23.37345,-15.81544 -34.75931,-24.14913 -4.20359,-3.16139 -8.49779,-6.27472 -12.13463,-10.09864 -1.91746,-1.99835 -3.12571,-4.52041 -4.61863,-6.82413 2.27938,-2.04002 4.35778,-4.37541 7.09489,-5.82622 5.10997,-2.82808 10.68426,-4.66982 16.17584,-6.59739 17.9473,-6.03286 36.15407,-11.23704 54.25056,-16.79615 18.70203,-5.72799 37.4052,-11.4666 55.93982,-17.7201 3.9706,-1.35166 8.00377,-2.75322 11.80852,-4.24404 1.23501,-0.52513 2.53291,-0.96697 3.66006,-1.69891 0.80895,-1.15843 -0.53732,-2.50891 -1.71093,-2.53907 z"
       inkscape:label="right bk"
       sodipodi:nodetypes="cccccccccccccccccccccccccccccccccccccccccccccccccccccccccccccccccc" />
    <path
       d="M 550,120.59999 C 498.9,134.2 455.6,139.5 416.1,137.1 c -19.4,-1.2 -20.6,-1.2 -21.8,0.5 -0.7,1 -1.3,2.5 -1.3,3.3 0,0.9 -1.4,5.4 -3,10.1 -1.6,4.7 -3,9 -3,9.6 0,0.7 2.3,2.6 5,4.4 11.7,7.5 11.7,10.6 0.7,21.7 -10.2,10.2 -11.9,10.5 -18.3,3.5 -4.2,-4.5 -4.5,-4.6 -6.8,-3.2 -1.3,0.8 -4.9,3 -8,4.8 -6.7,4 -6.3,1.1 -4.1,34.9 2.9,45.1 3.7,80.1 3.3,151.8 0,0 0.10763,60.70975 0.40868,67.21451 0.2713,3.54533 1.35641,4.76282 2.29132,4.78549 0.32136,-0.009 1.98015,0.3886 3.13354,-5.07423 C 365.22783,442.68573 365.7,439.5 365.7,439.5 c 3.48332,-21.85467 6.3,-68.9 8.8,-106.5 3.7,-56.5 5.5,-79.7 6.6,-87 1.5,-10 3.7,-17 5.4,-17 2.1,0 8.9,6.4 15,14 2.8,3.6 16.1,21.8 29.5,40.5 26.6,37.1 48,66.3 54.3,73.8 4.3,5.2 7.9,6.1 8.5,2.1 0.2,-1.4 -7.3,-14.4 -21.4,-37 -41.5,-66.6 -58.1,-95.5 -63.9,-110.7 -3.4,-9.1 -3.3,-10.7 0.5,-10.7 8.4,0 24.7,8.3 102.9,52.4 19.4,11 32.1,17.6 33.5,17.4 1.4,-0.2 2.2,-1.1 2.4,-2.8 0.2,-2.2 -0.8,-3.4 -6.5,-7.5 -28.8,-20.8 -41.7,-29.8 -69.3,-48.4 -34.2,-23.2 -44.1,-30.6 -47.1,-35.5 l -1.9,-3.1 2.8,-2.6 c 4.7,-4.2 15.8,-8.2 59.9,-21.4 52,-15.7 83.7,-26.1 85.4,-28.1 1.6,-2 0.1,-4.8 -2.7,-5.1 -1,0 -9.3,1.9 -18.4,4.29999 z m 19.3,-1.1 c 0.3,1.4 -35.7,13.30001 -84.6,28.00001 -45.4,13.6 -55.3,17.2 -60.6,22 -3.3,3.1 -3.4,3.3 -2.1,6.4 2.5,6.2 8.4,10.6 63.5,48 32.5,22.1 60.4,42.3 60.5,43.8 0,0.7 -0.4,1.3 -1,1.3 -0.5,0 -15.1,-7.9 -32.2,-17.6 -70.2,-39.6 -88.1,-49 -99.2,-51.8 -10.1,-2.7 -11.8,0.5 -7.1,13.1 5.8,15.2 22.4,44.1 63.8,110.6 12,19.1 21.7,35.2 21.7,35.8 0,0.6 -0.6,0.9 -1.2,0.7 -1.8,-0.6 -25,-31.6 -51.7,-68.9 -36.7,-51.2 -43.5,-59.9 -50.3,-63.5 -2.5,-1.3 -2.9,-1.3 -4.7,0.5 -3.8,3.8 -6,18.7 -8.6,59.1 -4.1,62.5 -5.8,85.7 -8,111 -3.8,43.3 -5.05508,51.50215 -6.09578,50.90471 C 360.63657,448.46402 360.6,429.7 360.9,379.3 c 0.3,-70.8 -0.5,-106.1 -3.5,-155.7 -1.3,-20.9 -1.4,-27.1 -0.5,-27.4 0.6,-0.2 3.8,-2.1 6.9,-4.2 l 5.7,-3.9 4.1,4.5 c 3.5,3.7 4.7,4.4 7.9,4.4 3.5,0 4.7,-0.8 12.7,-8.8 7.8,-7.8 8.8,-9.2 8.8,-12.4 0,-4.3 -2.5,-7.7 -8.8,-12 -2.6,-1.7 -4.8,-3.2 -5,-3.3 -0.1,-0.1 0.9,-3.3 2.3,-7.1 1.3,-3.8 2.9,-8.9 3.5,-11.3 l 1.2,-4.4 7.6,0.7 c 46,3.9 91.2,-0.9 147.2,-15.8 17.1,-4.50001 18,-4.70001 18.3,-3.10001 z"
       id="path63-3"
       style="fill:#000000;stroke:none;stroke-width:0.1"
       sodipodi:nodetypes="cccsssccccccccccsccsccccccscsccccccccccccccccsccccssccsccsccscccssscccccccc"
       inkscape:label="right" />
  </g>
</svg>
